<?xml version="1.0" standalone="no"?>
<!DOCTYPE svg PUBLIC "-//W3C//DTD SVG 20010904//EN"
 "http://www.w3.org/TR/2001/REC-SVG-20010904/DTD/svg10.dtd">
<svg version="1.0" xmlns="http://www.w3.org/2000/svg"
 width="3978.000000pt" height="994.000000pt" viewBox="0 0 3978.000000 994.000000"
 preserveAspectRatio="xMidYMid meet">

<g transform="translate(0.000000,994.000000) scale(0.100000,-0.100000)"
fill="#000000" stroke="none">
<path fill='#223b6c' d="M25410 9914 c-1015 -21 -1774 -76 -2492 -180 l-128 -19 0 -4782 0
-4783 78 1 c42 0 199 4 347 8 218 7 290 13 375 31 325 69 579 203 814 429 268
259 455 598 525 950 20 101 21 131 21 1240 0 632 4 1142 9 1150 7 11 81 13
447 8 249 -3 467 -10 504 -16 36 -6 97 -16 135 -23 90 -14 251 -66 346 -111
215 -102 401 -294 532 -547 107 -207 194 -465 271 -800 15 -63 35 -151 46
-195 10 -44 26 -109 34 -145 25 -109 143 -579 169 -675 27 -100 64 -234 77
-280 5 -16 13 -46 18 -65 83 -301 240 -746 316 -895 l31 -60 1109 -3 c611 -1
1114 2 1118 6 5 5 -5 38 -22 75 -36 80 -158 449 -220 667 -24 83 -142 512
-161 585 -12 44 -30 109 -40 145 -10 36 -32 118 -49 182 -33 131 -76 293 -115
438 -14 52 -39 145 -55 205 -44 169 -68 256 -140 515 -52 189 -127 414 -175
525 -7 17 -25 59 -40 95 -64 155 -196 386 -293 515 -182 240 -400 422 -654
544 -141 68 -144 84 -23 131 33 13 116 51 185 85 644 319 1135 890 1335 1552
97 318 126 653 90 1018 -33 333 -78 527 -185 795 -169 425 -484 802 -890 1066
-101 66 -358 201 -450 238 -25 10 -54 21 -65 26 -45 20 -215 79 -285 100 -41
12 -86 26 -100 30 -126 43 -468 110 -750 149 -401 55 -1065 86 -1600 75z m915
-1647 c239 -41 372 -79 520 -145 334 -151 566 -399 668 -713 51 -155 67 -270
67 -463 0 -256 -36 -420 -133 -612 -89 -175 -201 -311 -351 -423 -273 -204
-567 -308 -986 -351 -77 -8 -289 -10 -635 -8 l-520 3 -3 1328 -2 1327 27 11
c33 12 122 25 323 44 233 22 240 22 600 20 249 -2 358 -7 425 -18z"/>
<path fill='#223b6c' d="M0 5000 l0 -4850 1098 2 1097 3 0 4135 c0 3992 -1 4137 -19 4205 -68
260 -209 536 -374 735 -261 315 -580 505 -987 589 -106 22 -266 31 -535 31
l-280 0 0 -4850z"/>
<path fill='#223b6c' d="M4262 5003 l3 -4848 1095 0 1095 0 0 4120 c0 3460 -2 4130 -14 4180
-39 170 -135 404 -231 560 -218 358 -541 619 -915 744 -224 75 -360 91 -755
91 l-280 0 2 -4847z"/>
<path fill='#223b6c' d="M8545 9838 c-3 -7 -4 -2189 -3 -4848 l3 -4835 1095 0 1095 0 0 4140
c0 3991 -1 4142 -18 4205 -77 269 -213 534 -375 730 -297 359 -678 562 -1144
610 -147 15 -647 13 -653 -2z"/>
<path fill='#223b6c' d="M12793 6868 c3 -2663 5 -3001 20 -3148 23 -234 43 -394 77 -610 48
-302 143 -657 258 -965 101 -270 282 -609 444 -827 387 -520 885 -875 1529
-1088 131 -44 290 -89 359 -103 14 -2 59 -12 100 -20 172 -36 410 -69 640 -89
182 -16 668 -22 780 -9 52 5 156 15 230 21 130 10 272 28 410 51 58 10 94 17
255 50 374 76 824 254 1150 454 512 314 925 774 1197 1335 61 126 100 213 125
280 12 30 32 84 46 120 24 63 63 187 106 335 35 120 93 376 112 495 32 206 51
351 76 585 15 145 17 433 20 3138 l4 2977 -276 0 c-269 0 -407 -8 -530 -31
-325 -62 -600 -207 -840 -444 -198 -196 -316 -371 -422 -630 -54 -132 -74
-198 -98 -330 -13 -69 -15 -376 -15 -2225 0 -2503 3 -2404 -90 -2925 -5 -27
-21 -95 -35 -150 -151 -590 -454 -1007 -875 -1207 -117 -55 -115 -54 -205 -82
-184 -58 -375 -86 -590 -86 -667 0 -1165 303 -1468 891 -52 101 -129 292 -157
389 -7 25 -16 56 -20 70 -27 84 -79 343 -100 495 -38 282 -40 399 -40 2583 0
1403 -3 2148 -10 2195 -32 223 -137 484 -283 705 -213 325 -471 535 -817 670
-230 88 -398 112 -806 112 l-265 0 4 -2982z"/>
<path fill='#223b6c' d="M33869 9823 c-10 -26 -56 -173 -99 -318 -10 -33 -35 -114 -55 -180
-21 -66 -46 -148 -56 -182 -10 -35 -28 -91 -38 -125 -10 -35 -35 -117 -56
-183 -36 -118 -56 -184 -94 -307 -10 -35 -35 -117 -56 -183 -20 -66 -45 -147
-55 -180 -10 -33 -35 -114 -55 -180 -21 -66 -46 -148 -56 -182 -10 -35 -28
-91 -38 -125 -17 -55 -39 -126 -111 -363 -10 -33 -44 -143 -75 -245 -31 -102
-65 -212 -75 -245 -15 -51 -79 -257 -152 -495 -11 -36 -23 -78 -28 -95 -4 -16
-29 -97 -55 -180 -26 -82 -51 -163 -55 -180 -4 -16 -15 -52 -24 -80 -9 -27
-20 -63 -25 -80 -5 -16 -26 -84 -46 -150 -20 -66 -40 -131 -45 -145 -4 -14
-18 -59 -30 -100 -12 -41 -25 -86 -30 -100 -5 -14 -25 -79 -45 -145 -20 -66
-40 -131 -45 -145 -4 -14 -18 -59 -30 -100 -12 -41 -25 -86 -30 -100 -5 -14
-25 -79 -45 -145 -45 -147 -48 -157 -84 -275 -16 -52 -41 -133 -55 -180 -14
-47 -35 -114 -46 -150 -11 -36 -32 -103 -46 -150 -14 -47 -39 -128 -55 -180
-31 -103 -30 -99 -84 -275 -20 -66 -49 -160 -64 -210 -16 -49 -38 -124 -50
-165 -12 -41 -26 -86 -31 -100 -9 -24 -46 -148 -110 -360 -17 -58 -47 -154
-66 -215 -19 -60 -44 -141 -55 -180 -12 -38 -25 -81 -30 -95 -4 -14 -29 -95
-54 -180 -25 -85 -50 -166 -55 -180 -5 -14 -23 -72 -40 -130 -17 -58 -42 -139
-55 -180 -13 -41 -38 -122 -55 -180 -18 -58 -43 -139 -55 -180 -13 -41 -38
-122 -55 -180 -51 -168 -70 -230 -95 -310 -13 -41 -38 -122 -55 -180 -18 -58
-38 -123 -45 -145 -7 -22 -11 -43 -8 -47 2 -5 510 -8 1127 -8 887 0 1126 3
1133 12 5 7 26 76 47 153 21 77 42 154 47 170 5 17 34 120 64 230 30 110 60
216 65 235 6 19 39 141 75 270 36 129 69 251 75 270 5 19 35 125 65 235 30
110 59 216 65 235 6 19 35 125 65 235 30 110 59 214 64 230 5 17 19 68 31 115
13 47 28 91 33 98 13 17 2772 18 2783 1 6 -11 55 -163 74 -234 5 -16 18 -61
30 -100 12 -38 25 -83 30 -100 4 -16 29 -100 55 -185 26 -85 59 -198 75 -250
16 -52 45 -149 65 -215 20 -66 40 -133 45 -150 10 -37 56 -189 105 -350 20
-66 41 -133 45 -150 4 -16 38 -129 75 -250 37 -121 71 -233 75 -250 28 -107
73 -241 83 -247 19 -12 2355 -10 2362 2 4 6 2 16 -3 23 -10 12 -34 85 -92 277
-17 58 -35 116 -40 130 -12 36 -73 227 -110 350 -18 58 -47 152 -65 210 -18
58 -48 152 -65 210 -18 58 -41 130 -50 160 -22 66 -56 177 -100 320 -38 124
-98 315 -110 350 -5 14 -23 72 -40 130 -18 58 -47 152 -65 210 -18 58 -52 166
-75 240 -23 74 -45 146 -50 160 -5 14 -25 79 -45 145 -20 66 -45 147 -56 180
-11 33 -23 74 -28 90 -5 17 -25 80 -44 140 -19 61 -49 157 -67 215 -18 58 -48
155 -67 215 -19 61 -39 124 -44 140 -5 17 -17 57 -28 90 -11 33 -36 114 -56
180 -20 66 -45 145 -55 175 -9 30 -32 102 -50 160 -17 58 -47 152 -65 210 -18
58 -52 166 -75 240 -23 74 -56 182 -75 240 -18 58 -47 152 -65 210 -37 121
-97 313 -110 350 -5 14 -25 79 -45 145 -40 131 -101 328 -145 470 -16 50 -50
158 -75 240 -26 83 -62 197 -80 255 -53 168 -90 285 -135 430 -95 310 -113
368 -130 420 -22 66 -56 177 -100 320 -18 58 -47 152 -65 210 -19 58 -52 166
-75 240 -23 74 -57 182 -75 240 -18 58 -48 152 -65 210 -18 58 -41 130 -50
160 -10 30 -29 91 -43 135 -44 142 -89 288 -117 375 l-26 85 -1437 3 -1437 2
-11 -27z m1375 -1631 c3 -5 48 -179 101 -388 140 -551 197 -769 255 -984 12
-41 29 -106 40 -145 10 -38 37 -133 60 -210 23 -77 48 -165 57 -195 8 -30 19
-70 24 -87 5 -18 13 -48 18 -65 5 -18 61 -215 125 -438 64 -223 121 -423 127
-445 6 -22 15 -51 19 -65 4 -14 13 -43 19 -65 86 -305 213 -748 222 -776 6
-20 8 -42 5 -48 -9 -13 -2093 -16 -2114 -2 -13 8 -10 20 78 331 6 19 39 141
75 270 36 129 69 251 75 270 19 68 80 285 89 315 4 17 13 48 20 70 6 22 36
130 66 240 30 110 59 214 64 230 4 17 13 48 20 70 6 22 24 87 40 145 55 196
182 711 231 940 9 40 93 414 116 510 8 36 19 84 24 108 6 23 15 63 21 90 6 26
14 65 19 87 23 100 51 221 55 233 5 13 41 17 49 4z"/>
</g>
</svg>
